<?xml version="1.0" encoding="UTF-8" standalone="no"?>
<!-- Created with Inkscape (http://www.inkscape.org/) -->

<svg
   xmlns:dc="http://purl.org/dc/elements/1.1/"
   xmlns:cc="http://creativecommons.org/ns#"
   xmlns:rdf="http://www.w3.org/1999/02/22-rdf-syntax-ns#"
   xmlns:svg="http://www.w3.org/2000/svg"
   xmlns="http://www.w3.org/2000/svg"
   xmlns:sodipodi="http://sodipodi.sourceforge.net/DTD/sodipodi-0.dtd"
   xmlns:inkscape="http://www.inkscape.org/namespaces/inkscape"
   version="1.1"
   id="svg29"
   xml:space="preserve"
   width="793.70081"
   height="1122.5197"
   viewBox="0 0 793.70081 1122.5197"
   sodipodi:docname="DIYNanoDrop.svg"
   inkscape:version="0.92.2 2405546, 2018-03-11"><metadata
     id="metadata35"><rdf:RDF><cc:Work
         rdf:about=""><dc:format>image/svg+xml</dc:format><dc:type
           rdf:resource="http://purl.org/dc/dcmitype/StillImage" /><dc:title></dc:title></cc:Work></rdf:RDF></metadata><defs
     id="defs33" /><sodipodi:namedview
     pagecolor="#ffffff"
     bordercolor="#666666"
     borderopacity="1"
     objecttolerance="10"
     gridtolerance="10"
     guidetolerance="10"
     inkscape:pageopacity="0"
     inkscape:pageshadow="2"
     inkscape:window-width="1920"
     inkscape:window-height="1023"
     id="namedview31"
     showgrid="false"
     inkscape:measure-start="-39.0857,890.955"
     inkscape:measure-end="62.5413,972.269"
     inkscape:zoom="0.99780626"
     inkscape:cx="264.93483"
     inkscape:cy="766.64313"
     inkscape:window-x="0"
     inkscape:window-y="30"
     inkscape:window-maximized="1"
     inkscape:current-layer="g39" /><g
     id="g37"
     inkscape:groupmode="layer"
     inkscape:label="DIYNanoDrop"
     transform="matrix(1.3333333,0,0,-1.3333333,0,1122.5197)"><g
       id="g39"><path
         d="M 24.238,743.382 V 431.581 h 138.899 c 1.566,0 2.824,1.258 2.824,2.824 v 73.727 c 0,1.562 -1.258,2.824 -2.824,2.824 h -11.352 v 158.723 h 49.602 l 18.425,18.426 v 36.851 l -18.425,18.426 z"
         style="fill:none;stroke:#000000;stroke-width:0.283465;stroke-linecap:butt;stroke-linejoin:miter;stroke-miterlimit:4;stroke-dasharray:none;stroke-opacity:1"
         id="path49"
         inkscape:connector-curvature="0" /><path
         d="m 185.609,706.483 c 0,-2.269 -1.836,-4.109 -4.105,-4.109 -2.274,-0.004 -4.113,1.836 -4.113,4.106 v 0.003 c -0.004,2.27 1.836,4.11 4.109,4.11 2.27,0.004 4.109,-1.836 4.109,-4.106 z"
         style="fill:none;stroke:#000000;stroke-width:0.283465;stroke-linecap:butt;stroke-linejoin:miter;stroke-miterlimit:4;stroke-dasharray:none;stroke-opacity:1"
         id="path51"
         inkscape:connector-curvature="0" /><path
         d="m 151.789,720.698 h 8.504 v -28.344 h -8.504 z"
         style="fill:none;stroke:#000000;stroke-width:0.283465;stroke-linecap:butt;stroke-linejoin:miter;stroke-miterlimit:4;stroke-dasharray:none;stroke-opacity:1"
         id="path53"
         inkscape:connector-curvature="0" /><path
         d="m 46.906,445.741 h 28.348 v -14.16 H 46.906 Z"
         style="fill:none;stroke:#000000;stroke-width:0.283465;stroke-linecap:butt;stroke-linejoin:miter;stroke-miterlimit:4;stroke-dasharray:none;stroke-opacity:1"
         id="path55"
         inkscape:connector-curvature="0" /><path
         d="m 143.289,499.616 h 17.008 v -28.348 h -17.008 z"
         style="fill:none;stroke:#000000;stroke-width:0.283465;stroke-linecap:butt;stroke-linejoin:miter;stroke-miterlimit:4;stroke-dasharray:none;stroke-opacity:1"
         id="path57"
         inkscape:connector-curvature="0" /><path
         d="m 468.527,170.909 h 28.348 c 9.391,0 17.008,-7.617 17.008,-17.011 0,-9.391 -7.617,-17.008 -17.008,-17.008 h -28.348 c -9.394,0 -17.007,7.617 -17.007,17.008 0,9.394 7.613,17.011 17.007,17.011 z"
         style="fill:none;stroke:#000000;stroke-width:0.283465;stroke-linecap:butt;stroke-linejoin:miter;stroke-miterlimit:4;stroke-dasharray:none;stroke-opacity:1"
         id="path59"
         inkscape:connector-curvature="0" /><path
         d="m 459.547,229.792 v -8.5 h -8.527 v -28.351 h 8.527 v -8.5 h 110.551 v 8.5 h 8.472 v 28.351 h -8.472 v 8.5 z"
         style="fill:none;stroke:#000000;stroke-width:0.283465;stroke-linecap:butt;stroke-linejoin:miter;stroke-miterlimit:4;stroke-dasharray:none;stroke-opacity:1"
         id="path61"
         inkscape:connector-curvature="0" /><path
         d="m 507.723,207.112 h 14.172"
         style="fill:none;stroke:#000000;stroke-width:0.283465;stroke-linecap:butt;stroke-linejoin:miter;stroke-miterlimit:4;stroke-dasharray:none;stroke-opacity:1"
         id="path63"
         inkscape:connector-curvature="0" /><path
         d="m 32.219,419.335 v -22.676 h -8.5 v -28.351 h 8.5 v -22.676 h -8.5 V 186.909 h 8.5 v -11.351 h -8.5 V 147.21 h 8.5 v -33.703 c 0.097,-11.465 -0.043,-11.598 55.277,-11.598 55.32,0 55.07,-0.203 55.274,11.598 v 33.703 h 8.5 v 28.348 h -8.5 v 11.351 h 8.5 v 158.723 h -8.5 v 22.676 h 8.5 v 28.351 h -8.5 v 22.676 c -48.321,0 -64.731,-0.082 -110.551,0 z"
         style="fill:none;stroke:#222221;stroke-width:0.283465;stroke-linecap:butt;stroke-linejoin:miter;stroke-miterlimit:4;stroke-dasharray:none;stroke-opacity:1"
         id="path65"
         inkscape:connector-curvature="0" /><path
         d="m 73.328,413.663 h 28.344 v -8.504 H 73.328 Z"
         style="fill:none;stroke:#222221;stroke-width:0.283465;stroke-linecap:butt;stroke-linejoin:miter;stroke-miterlimit:4;stroke-dasharray:none;stroke-opacity:1"
         id="path67"
         inkscape:connector-curvature="0" /><path
         d="m 175.086,658.862 v -8.5 h -8.5 v -28.324 h 8.5 l 0.027,-45.347 h -8.527 v -28.352 h 8.527 v -8.5 h 48.199 l 0.075,4.25 c 0.074,3.914 3.16,7.102 7.074,7.102 3.914,0 7.176,-3.188 7.101,-7.102 l -0.074,-4.25 h 48.2 v 8.5 h 8.5 v 28.352 h -8.5 l -0.028,45.347 h 8.528 v 28.324 h -8.528 v 8.5 z m 26.25,-17 h 58.125 v -8.5 c 0,-2.738 2.211,-4.949 4.949,-4.949 h 1.402 v -58.125 h -1.402 c -2.738,0 -4.949,-2.211 -4.949,-4.949 v -8.5 h -58.125 v 8.5 c 0,2.738 -2.211,4.949 -4.949,4.949 h -1.449 v 58.125 h 1.449 c 2.738,0 4.949,2.211 4.949,4.949 z"
         style="fill:none;stroke:#000000;stroke-width:0.283465;stroke-linecap:butt;stroke-linejoin:miter;stroke-miterlimit:4;stroke-dasharray:none;stroke-opacity:1"
         id="path69"
         inkscape:connector-curvature="0" /><path
         d="m 46.906,737.706 h 28.348 v -8.504 H 46.906 Z"
         style="fill:none;stroke:#000000;stroke-width:0.283465;stroke-linecap:butt;stroke-linejoin:miter;stroke-miterlimit:4;stroke-dasharray:none;stroke-opacity:1"
         id="path71"
         inkscape:connector-curvature="0" /><path
         d="m 114.938,445.741 h 28.348 v -14.16 h -28.348 z"
         style="fill:none;stroke:#000000;stroke-width:0.283465;stroke-linecap:butt;stroke-linejoin:miter;stroke-miterlimit:4;stroke-dasharray:none;stroke-opacity:1"
         id="path73"
         inkscape:connector-curvature="0" /><path
         d="m 99.348,733.456 c 0.004,-2.348 -1.895,-4.254 -4.246,-4.258 -2.348,-0.004 -4.254,1.899 -4.258,4.246 v 0.012 c -0.004,2.348 1.898,4.254 4.246,4.258 2.351,0 4.258,-1.898 4.258,-4.246 z"
         style="fill:none;stroke:#000000;stroke-width:0.283465;stroke-linecap:butt;stroke-linejoin:miter;stroke-miterlimit:4;stroke-dasharray:none;stroke-opacity:1"
         id="path75"
         inkscape:connector-curvature="0" /><path
         d="m 99.348,441.491 c 0.004,-2.347 -1.895,-4.254 -4.246,-4.258 -2.348,-0.003 -4.254,1.899 -4.258,4.247 v 0.011 c -0.004,2.348 1.898,4.254 4.246,4.258 2.351,0.004 4.258,-1.898 4.258,-4.246 z"
         style="fill:none;stroke:#000000;stroke-width:0.283465;stroke-linecap:butt;stroke-linejoin:miter;stroke-miterlimit:4;stroke-dasharray:none;stroke-opacity:1"
         id="path77"
         inkscape:connector-curvature="0" /><path
         d="m 456.82,743.382 v -8.5 h -8.5 V 706.53 h 8.5 v -15.601 h 17.024 v 3.25 h 6.238 v -3.25 h 10.762 v -8.5 l -10.762,0.023 0.012,-3.297 h -6.25 v 3.274 H 456.82 v -15.574 h -8.5 v -28.348 h 8.5 v -22.711 h 110.551 v 22.684 h 8.5 v 28.351 h -8.5 v 15.676 h -17 v -3.25 h -6.238 v 3.25 h -10.762 v 8.5 l 10.762,-0.024 v 3.297 h 6.238 v -3.273 h 17 v 15.5 h 8.5 v 28.348 h -8.5 v 8.527 z"
         style="fill:none;stroke:#000000;stroke-width:0.283465;stroke-linecap:butt;stroke-linejoin:miter;stroke-miterlimit:4;stroke-dasharray:none;stroke-opacity:1"
         id="path79"
         inkscape:connector-curvature="0" /><path
         d="m 489.785,153.898 c 0,-3.911 -3.172,-7.086 -7.086,-7.086 -3.914,0 -7.086,3.175 -7.086,7.086 0,3.914 3.172,7.089 7.086,7.089 3.914,0 7.086,-3.175 7.086,-7.089 z"
         style="fill:none;stroke:#000000;stroke-width:0.283465;stroke-linecap:butt;stroke-linejoin:miter;stroke-miterlimit:4;stroke-dasharray:none;stroke-opacity:1"
         id="path81"
         inkscape:connector-curvature="0" /><path
         d="m 504.102,153.898 c 0,-2.426 -1.965,-4.391 -4.395,-4.391 -2.426,0 -4.391,1.965 -4.391,4.391 -0.004,2.429 1.961,4.398 4.387,4.402 2.426,0.004 4.395,-1.961 4.399,-4.387 z"
         style="fill:none;stroke:#000000;stroke-width:0.283465;stroke-linecap:butt;stroke-linejoin:miter;stroke-miterlimit:4;stroke-dasharray:none;stroke-opacity:1"
         id="path83"
         inkscape:connector-curvature="0" /><path
         d="m 470.086,153.898 c 0,-2.426 -1.965,-4.391 -4.395,-4.391 -2.425,0 -4.39,1.965 -4.39,4.391 -0.004,2.429 1.961,4.398 4.387,4.402 2.425,0.004 4.394,-1.961 4.398,-4.387 z"
         style="fill:none;stroke:#000000;stroke-width:0.283465;stroke-linecap:butt;stroke-linejoin:miter;stroke-miterlimit:4;stroke-dasharray:none;stroke-opacity:1"
         id="path85"
         inkscape:connector-curvature="0" /><path
         d="m 480.52,153.898 c 0,-0.782 -0.637,-1.415 -1.418,-1.415 -0.786,0 -1.418,0.633 -1.418,1.415 0,0.785 0.632,1.418 1.418,1.418 0.781,0 1.418,-0.633 1.418,-1.418 z"
         style="fill:none;stroke:#000000;stroke-width:0.283465;stroke-linecap:butt;stroke-linejoin:miter;stroke-miterlimit:4;stroke-dasharray:none;stroke-opacity:1"
         id="path87"
         inkscape:connector-curvature="0" /><path
         d="m 487.719,153.898 c 0,-0.782 -0.633,-1.415 -1.418,-1.415 -0.781,0 -1.418,0.633 -1.418,1.415 0,0.785 0.637,1.418 1.418,1.418 0.785,0 1.418,-0.633 1.418,-1.418 z"
         style="fill:none;stroke:#000000;stroke-width:0.283465;stroke-linecap:butt;stroke-linejoin:miter;stroke-miterlimit:4;stroke-dasharray:none;stroke-opacity:1"
         id="path89"
         inkscape:connector-curvature="0" /><path
         d="m 381.777,213.444 c 0,-3.914 -3.172,-7.089 -7.086,-7.089 -3.914,0 -7.089,3.175 -7.089,7.089 0,3.914 3.175,7.086 7.089,7.086 3.914,0 7.086,-3.172 7.086,-7.086 z"
         style="fill:none;stroke:#000000;stroke-width:0.283465;stroke-linecap:butt;stroke-linejoin:miter;stroke-miterlimit:4;stroke-dasharray:none;stroke-opacity:1"
         id="path91"
         inkscape:connector-curvature="0" /><path
         d="m 377.953,241.792 c 0,-1.801 -1.461,-3.262 -3.262,-3.262 -1.8,0 -3.261,1.461 -3.261,3.262 0,1.801 1.461,3.258 3.261,3.258 1.801,0 3.262,-1.457 3.262,-3.258 z"
         style="fill:none;stroke:#000000;stroke-width:0.283465;stroke-linecap:butt;stroke-linejoin:miter;stroke-miterlimit:4;stroke-dasharray:none;stroke-opacity:1"
         id="path93"
         inkscape:connector-curvature="0" /><path
         d="M 383.195,289.98 V 241.702"
         style="fill:none;stroke:#000000;stroke-width:0.283465;stroke-linecap:butt;stroke-linejoin:miter;stroke-miterlimit:4;stroke-dasharray:none;stroke-opacity:1"
         id="path95"
         inkscape:connector-curvature="0" /><path
         d="m 363.336,289.987 0.023,-48.523 h 0.028 c 0.175,-6.109 5.148,-11 11.301,-11 6.152,0 11.148,4.891 11.324,11 0,0.797 0.05,37.805 0.05,48.523 h -2.874 v -48.222 c -0.016,-4.688 -3.813,-8.477 -8.5,-8.477 -4.7,0 -8.5,3.805 -8.5,8.5 0,0.059 0,0.117 0,0.176 v 48.023 z"
         style="fill:none;stroke:#000000;stroke-width:0.283465;stroke-linecap:butt;stroke-linejoin:miter;stroke-miterlimit:4;stroke-dasharray:none;stroke-opacity:1"
         id="path97"
         inkscape:connector-curvature="0" /><path
         d="m 399.586,241.077 c 0,-1.801 -1.461,-3.258 -3.262,-3.258 -1.801,0 -3.262,1.457 -3.262,3.258 0,1.801 1.461,3.262 3.262,3.262 1.801,0 3.262,-1.461 3.262,-3.262 z"
         style="fill:none;stroke:#000000;stroke-width:0.283465;stroke-linecap:butt;stroke-linejoin:miter;stroke-miterlimit:4;stroke-dasharray:none;stroke-opacity:1"
         id="path99"
         inkscape:connector-curvature="0" /><path
         d="m 360.945,213.444 c 0,-1.8 -1.461,-3.261 -3.261,-3.261 -1.801,0 -3.262,1.461 -3.262,3.261 0,1.801 1.457,3.262 3.258,3.266 1.8,0.004 3.261,-1.457 3.265,-3.254 z"
         style="fill:none;stroke:#000000;stroke-width:0.283465;stroke-linecap:butt;stroke-linejoin:miter;stroke-miterlimit:4;stroke-dasharray:none;stroke-opacity:1"
         id="path101"
         inkscape:connector-curvature="0" /><path
         d="m 394.961,213.444 c 0,-1.8 -1.461,-3.261 -3.262,-3.261 -1.801,0 -3.261,1.461 -3.261,3.261 0,1.801 1.457,3.262 3.257,3.266 1.797,0.004 3.262,-1.457 3.266,-3.254 z"
         style="fill:none;stroke:#000000;stroke-width:0.283465;stroke-linecap:butt;stroke-linejoin:miter;stroke-miterlimit:4;stroke-dasharray:none;stroke-opacity:1"
         id="path103"
         inkscape:connector-curvature="0" /><path
         d="m 319.418,420.183 v -27.039 c 30.051,-12.317 25.891,-49.996 26.523,-72.676 0.77,-27.391 -4.336,-52.235 -8.222,-59.449 -4.43,-5.141 -5.508,-6.196 -15.903,-19.848 -5.406,-6.676 -10.605,-18.563 -10.898,-32.277 0,-23.039 18.41,-63.926 63.773,-63.676 45.368,-0.25 63.778,40.637 63.778,63.676 -0.293,13.714 -5.492,25.601 -10.903,32.277 -10.386,13.652 -11.441,14.707 -15.875,19.848 -3.886,7.214 -9.015,32.058 -8.25,59.449 0.637,22.68 -3.523,60.359 26.528,72.676 v 27.039 z"
         style="fill:none;stroke:#000000;stroke-width:0.283465;stroke-linecap:butt;stroke-linejoin:miter;stroke-miterlimit:4;stroke-dasharray:none;stroke-opacity:1"
         id="path105"
         inkscape:connector-curvature="0" /><path
         d="m 199.934,484.792 c -1.957,0 -3.543,1.586 -3.543,3.543 0,1.957 1.586,3.543 3.543,3.543 1.953,0.004 3.543,-1.582 3.543,-3.539 0.003,-1.957 -1.579,-3.543 -3.532,-3.547 z"
         style="fill:none;stroke:#000000;stroke-width:0.283465;stroke-linecap:butt;stroke-linejoin:miter;stroke-miterlimit:4;stroke-dasharray:none;stroke-opacity:1"
         id="path107"
         inkscape:connector-curvature="0" /><path
         d="m 199.934,505.347 c -9.395,0 -17,-7.61 -17,-17 v -19.852 c 0.011,-7.969 5.91,-14.644 13.312,-16.472 v 23.421 h 7.371 v -23.421 c 7.403,1.828 13.305,8.503 13.317,16.472 v 19.852 c 0,9.39 -7.61,17 -17,17 z"
         style="fill:none;stroke:#000000;stroke-width:0.283465;stroke-linecap:butt;stroke-linejoin:miter;stroke-miterlimit:4;stroke-dasharray:none;stroke-opacity:1"
         id="path109"
         inkscape:connector-curvature="0" /><path
         d="m 250.207,485.233 c -1.957,0 -3.543,1.586 -3.543,3.543 0,1.957 1.586,3.543 3.543,3.543 1.953,0.004 3.543,-1.582 3.543,-3.539 0.004,-1.953 -1.578,-3.543 -3.531,-3.547 z"
         style="fill:none;stroke:#000000;stroke-width:0.283465;stroke-linecap:butt;stroke-linejoin:miter;stroke-miterlimit:4;stroke-dasharray:none;stroke-opacity:1"
         id="path111"
         inkscape:connector-curvature="0" /><path
         d="m 250.207,505.788 c -9.395,0 -17,-7.605 -17,-17 v -19.851 c 0.012,-7.965 5.91,-14.645 13.313,-16.473 v 23.422 h 7.371 v -23.422 c 7.402,1.828 13.3,8.508 13.316,16.473 v 19.851 c 0,9.395 -7.609,17 -17,17 z"
         style="fill:none;stroke:#000000;stroke-width:0.283465;stroke-linecap:butt;stroke-linejoin:miter;stroke-miterlimit:4;stroke-dasharray:none;stroke-opacity:1"
         id="path113"
         inkscape:connector-curvature="0" /><g
         id="g115"
         transform="matrix(1,-0.490322,-0.490322,-1,0,841.88975)"><path
           d="m 95.401,90.156 25.45,0.002 v 7.633 L 95.4,97.794 Z"
           style="fill:none;stroke:#000000;stroke-width:0.25451601;stroke-linecap:butt;stroke-linejoin:miter;stroke-miterlimit:4;stroke-dasharray:none;stroke-opacity:1"
           id="path117"
           inkscape:connector-curvature="0" /></g><g
         id="g119"
         transform="matrix(1,-0.490322,-0.490322,-1,0,841.88975)"><path
           d="m 161.573,90.156 h 25.453 l 0.002,7.636 h -25.453 z"
           style="fill:none;stroke:#000000;stroke-width:0.25451601;stroke-linecap:butt;stroke-linejoin:miter;stroke-miterlimit:4;stroke-dasharray:none;stroke-opacity:1"
           id="path121"
           inkscape:connector-curvature="0" /></g><path
         d="m 498.285,466.237 c -1.562,0 -2.824,-1.257 -2.824,-2.824 v -90.722 h -41.098 v -52.426 h 17 v 3.25 h 6.235 v -3.25 h 10.789 v -8.5 h -10.789 v -3.278 h -6.235 v 3.278 h -17 v -15.602 h -8.5 v -28.347 h 8.5 l -0.355,-22.762 c 11.867,-0.047 21.906,-0.043 32.621,-0.02 10.715,0.02 13.875,0.02 17.105,0.02 l 0.352,25.73 c 0.043,3.133 2.547,5.676 5.676,5.676 3.133,0 5.676,-2.543 5.676,-5.676 l -0.352,-25.73 h 49.473 l 0.351,22.762 h 8.5 v 28.347 h -8.5 v 15.653 h -17.023 v -3.25 h -6.25 l 0.015,3.269 -10.765,-0.019 v 8.5 h 10.765 v 3.273 h 6.235 v -3.273 h 17.023 v 52.375 h -41.098 v 90.722 c 0,1.567 -1.261,2.824 -2.824,2.824 z"
         style="fill:none;stroke:#000000;stroke-width:0.283465;stroke-linecap:butt;stroke-linejoin:miter;stroke-miterlimit:4;stroke-dasharray:none;stroke-opacity:1"
         id="path123"
         inkscape:connector-curvature="0" /><path
         d="M 437.977,743.382 V 431.581 H 299.074 c -1.562,0 -2.824,1.258 -2.824,2.824 v 73.727 c 0,1.562 1.262,2.824 2.824,2.824 h 11.352 v 158.723 h -49.602 l -18.422,18.426 v 36.851 l 18.422,18.426 z"
         style="fill:none;stroke:#000000;stroke-width:0.283465;stroke-linecap:butt;stroke-linejoin:miter;stroke-miterlimit:4;stroke-dasharray:none;stroke-opacity:1"
         id="path125"
         inkscape:connector-curvature="0" /><path
         d="m 276.602,706.483 c 0,-2.269 1.839,-4.109 4.109,-4.109 2.269,-0.004 4.109,1.836 4.113,4.106 v 0.003 c 0,2.27 -1.84,4.11 -4.109,4.11 -2.27,0.004 -4.11,-1.836 -4.113,-4.106 z"
         style="fill:none;stroke:#000000;stroke-width:0.283465;stroke-linecap:butt;stroke-linejoin:miter;stroke-miterlimit:4;stroke-dasharray:none;stroke-opacity:1"
         id="path127"
         inkscape:connector-curvature="0" /><path
         d="m 301.922,720.698 h 8.504 v -28.344 h -8.504 z"
         style="fill:none;stroke:#000000;stroke-width:0.283465;stroke-linecap:butt;stroke-linejoin:miter;stroke-miterlimit:4;stroke-dasharray:none;stroke-opacity:1"
         id="path129"
         inkscape:connector-curvature="0" /><path
         d="m 386.957,445.741 h 28.348 v -8.504 h -28.348 z"
         style="fill:none;stroke:#000000;stroke-width:0.283465;stroke-linecap:butt;stroke-linejoin:miter;stroke-miterlimit:4;stroke-dasharray:none;stroke-opacity:1"
         id="path131"
         inkscape:connector-curvature="0" /><path
         d="m 301.914,499.616 h 17.012 v -28.348 h -17.012 z"
         style="fill:none;stroke:#000000;stroke-width:0.283465;stroke-linecap:butt;stroke-linejoin:miter;stroke-miterlimit:4;stroke-dasharray:none;stroke-opacity:1"
         id="path133"
         inkscape:connector-curvature="0" /><path
         d="m 386.957,737.706 h 28.348 v -8.504 h -28.348 z"
         style="fill:none;stroke:#000000;stroke-width:0.283465;stroke-linecap:butt;stroke-linejoin:miter;stroke-miterlimit:4;stroke-dasharray:none;stroke-opacity:1"
         id="path135"
         inkscape:connector-curvature="0" /><path
         d="m 318.93,445.741 h 28.344 v -8.504 H 318.93 Z"
         style="fill:none;stroke:#000000;stroke-width:0.283465;stroke-linecap:butt;stroke-linejoin:miter;stroke-miterlimit:4;stroke-dasharray:none;stroke-opacity:1"
         id="path137"
         inkscape:connector-curvature="0" /><path
         d="m 362.863,733.456 c 0,-2.348 1.899,-4.254 4.246,-4.258 2.352,-0.004 4.258,1.899 4.258,4.246 v 0.012 c 0.004,2.348 -1.898,4.254 -4.246,4.258 -2.348,0 -4.254,-1.898 -4.258,-4.246 z"
         style="fill:none;stroke:#000000;stroke-width:0.283465;stroke-linecap:butt;stroke-linejoin:miter;stroke-miterlimit:4;stroke-dasharray:none;stroke-opacity:1"
         id="path139"
         inkscape:connector-curvature="0" /><path
         d="m 362.863,441.491 c 0,-2.347 1.899,-4.254 4.246,-4.258 2.352,-0.003 4.258,1.899 4.258,4.247 v 0.011 c 0.004,2.348 -1.898,4.254 -4.246,4.258 -2.348,0.004 -4.254,-1.898 -4.258,-4.246 z"
         style="fill:none;stroke:#000000;stroke-width:0.283465;stroke-linecap:butt;stroke-linejoin:miter;stroke-miterlimit:4;stroke-dasharray:none;stroke-opacity:1"
         id="path141"
         inkscape:connector-curvature="0" /><g
         id="g143"
         transform="matrix(-1,-0.490322,0.490322,-1,0,841.88975)"><path
           d="m -277.228,272.865 h 25.453 v 7.632 l -25.451,0.003 z"
           style="fill:none;stroke:#000000;stroke-width:0.25451601;stroke-linecap:butt;stroke-linejoin:miter;stroke-miterlimit:4;stroke-dasharray:none;stroke-opacity:1"
           id="path145"
           inkscape:connector-curvature="0" /></g><g
         id="g147"
         transform="matrix(-1,-0.490322,0.490322,-1,0,841.88975)"><path
           d="m -211.053,272.863 h 25.453 l -0.001,7.637 -25.45,-10e-4 z"
           style="fill:none;stroke:#000000;stroke-width:0.25451601;stroke-linecap:butt;stroke-linejoin:miter;stroke-miterlimit:4;stroke-dasharray:none;stroke-opacity:1"
           id="path149"
           inkscape:connector-curvature="0" /></g><path
         d="m 458.73,569.21 h 110.524 v -31.375 h -17 v 3.273 h -6.234 v -3.296 l -10.766,0.023 v -8.5 h 10.766 v -3.25 h 6.234 v 3.25 h 17 V 498.37 l -110.551,0.028 v 30.859 h 17.027 v -3.274 h 6.25 l -0.015,3.297 10.765,0.055 v 8.422 h -10.765 v 3.25 h -6.235 v -3.25 h -17.027 z"
         style="fill:none;stroke:#000000;stroke-width:0.283465;stroke-linecap:butt;stroke-linejoin:miter;stroke-miterlimit:4;stroke-dasharray:none;stroke-opacity:1"
         id="path151"
         inkscape:connector-curvature="0" /><g
         id="g153"
         transform="translate(0,841.88975)"><path
           d="m 196.383,-206.543 c 1.097,0 1.984,-0.887 1.984,-1.984 0,-1.098 -0.887,-1.985 -1.984,-1.985 -1.098,0 -1.985,0.887 -1.985,1.985 0,1.097 0.887,1.984 1.985,1.984 z"
           style="fill:none;stroke:#000000;stroke-width:0.283465;stroke-linecap:butt;stroke-linejoin:miter;stroke-miterlimit:4;stroke-dasharray:none;stroke-opacity:1"
           id="path155"
           inkscape:connector-curvature="0" /></g><g
         id="g157"
         transform="translate(0,841.88975)"><path
           d="m 264.414,-206.543 c 1.098,0 1.984,-0.887 1.984,-1.984 0,-1.098 -0.886,-1.985 -1.984,-1.985 -1.098,0 -1.984,0.887 -1.984,1.985 0,1.097 0.886,1.984 1.984,1.984 z"
           style="fill:none;stroke:#000000;stroke-width:0.283465;stroke-linecap:butt;stroke-linejoin:miter;stroke-miterlimit:4;stroke-dasharray:none;stroke-opacity:1"
           id="path159"
           inkscape:connector-curvature="0" /></g><g
         id="g161"
         transform="translate(0,841.88975)"><path
           d="m 264.414,-274.574 c 1.098,0 1.984,-0.887 1.984,-1.985 0,-1.097 -0.886,-1.984 -1.984,-1.984 -1.098,0 -1.984,0.887 -1.984,1.984 0,1.098 0.886,1.985 1.984,1.985 z"
           style="fill:none;stroke:#000000;stroke-width:0.283465;stroke-linecap:butt;stroke-linejoin:miter;stroke-miterlimit:4;stroke-dasharray:none;stroke-opacity:1"
           id="path163"
           inkscape:connector-curvature="0" /></g><g
         id="g165"
         transform="translate(0,841.88975)"><path
           d="m 196.383,-274.574 c 1.097,0 1.984,-0.887 1.984,-1.985 0,-1.097 -0.887,-1.984 -1.984,-1.984 -1.098,0 -1.985,0.887 -1.985,1.984 0,1.098 0.887,1.985 1.985,1.985 z"
           style="fill:none;stroke:#000000;stroke-width:0.283465;stroke-linecap:butt;stroke-linejoin:miter;stroke-miterlimit:4;stroke-dasharray:none;stroke-opacity:1"
           id="path167"
           inkscape:connector-curvature="0" /></g><path
         d="m 205.5,282.691 h 49.793 c 0.34,0 0.613,-0.274 0.613,-0.614 0,-0.344 -0.273,-0.617 -0.613,-0.617 H 205.5 c -0.34,0 -0.617,0.273 -0.617,0.617 0,0.34 0.277,0.614 0.617,0.614 z"
         style="fill:none;stroke:#000000;stroke-width:0.283465;stroke-linecap:butt;stroke-linejoin:miter;stroke-miterlimit:4;stroke-dasharray:none;stroke-opacity:1"
         id="path169"
         inkscape:connector-curvature="0" /><path
         d="m 73.848,489.413 c -2.192,0 -3.977,-1.785 -3.977,-3.976 0,-2.192 1.785,-3.977 3.977,-3.977 h 42.222 c 0.024,0 0.055,0.02 0.078,0.027 0.067,0 0.129,-0.027 0.2,-0.027 2.191,0 3.972,1.785 3.972,3.977 0,2.191 -1.781,3.976 -3.972,3.976 -0.071,0 -0.133,-0.023 -0.2,-0.027 -0.023,0.012 -0.054,0.027 -0.078,0.027 z"
         style="fill:none;stroke:#000000;stroke-width:0.283465;stroke-linecap:butt;stroke-linejoin:miter;stroke-miterlimit:4;stroke-dasharray:none;stroke-opacity:1"
         id="path171"
         inkscape:connector-curvature="0" /><path
         d="m 345.867,489.413 c -2.191,0 -3.976,-1.785 -3.976,-3.976 0,-2.192 1.785,-3.977 3.976,-3.977 h 42.223 c 0.023,0 0.055,0.02 0.074,0.027 0.07,0 0.133,-0.027 0.203,-0.027 2.192,0 3.973,1.785 3.973,3.977 0,2.191 -1.781,3.976 -3.973,3.976 -0.07,0 -0.133,-0.023 -0.203,-0.027 -0.019,0.012 -0.051,0.027 -0.074,0.027 z"
         style="fill:none;stroke:#000000;stroke-width:0.283465;stroke-linecap:butt;stroke-linejoin:miter;stroke-miterlimit:4;stroke-dasharray:none;stroke-opacity:1"
         id="path173"
         inkscape:connector-curvature="0" /><path
         d="m 94.301,161.394 c 0,-3.758 -3.043,-6.805 -6.801,-6.805 -3.758,0 -6.805,3.047 -6.805,6.805 0,3.757 3.047,6.8 6.805,6.8 3.758,0 6.801,-3.043 6.801,-6.8 z"
         style="fill:none;stroke:#000000;stroke-width:0.283465;stroke-linecap:butt;stroke-linejoin:miter;stroke-miterlimit:4;stroke-dasharray:none;stroke-opacity:1"
         id="path177"
         inkscape:connector-curvature="0" /><path
         d="m 462.867,259.288 h 28.344 v -8.504 h -28.344 z"
         style="fill:none;stroke:#000000;stroke-width:0.283465;stroke-linecap:butt;stroke-linejoin:miter;stroke-miterlimit:4;stroke-dasharray:none;stroke-opacity:1"
         id="path187"
         inkscape:connector-curvature="0" /><path
         d="m 527.531,259.276 h 28.348 v -8.504 h -28.348 z"
         style="fill:none;stroke:#000000;stroke-width:0.283465;stroke-linecap:butt;stroke-linejoin:miter;stroke-miterlimit:4;stroke-dasharray:none;stroke-opacity:1"
         id="path189"
         inkscape:connector-curvature="0" /><g
         id="g191"
         transform="matrix(1,0,0,-1,0,841.88975)"><path
           d="m 184.176,428.352 v 8.523 h -8.602 c -0.258,0 -0.472,0.191 -0.472,0.449 v 282.528 c 0,0.257 0.214,0.472 0.472,0.472 h 8.602 v 8.5 h 28.347 v -8.5 h 36.301 v 8.5 h 28.352 v -8.5 h 8.051 c 0.257,0 0.449,-0.215 0.449,-0.472 V 437.324 c 0,-0.258 -0.192,-0.449 -0.449,-0.449 h -8.051 v -8.5 h -28.352 v 8.5 h -36.301 v -8.523 z"
           style="fill:none;stroke:#000000;stroke-width:0.283465;stroke-linecap:butt;stroke-linejoin:miter;stroke-miterlimit:4;stroke-dasharray:none;stroke-opacity:1"
           id="path193"
           inkscape:connector-curvature="0" /></g><path
         d="m 530.52,629.968 h 28.348 v -8.504 H 530.52 Z"
         style="fill:none;stroke:#000000;stroke-width:0.283465;stroke-linecap:butt;stroke-linejoin:miter;stroke-miterlimit:4;stroke-dasharray:none;stroke-opacity:1"
         id="path195"
         inkscape:connector-curvature="0" /><path
         d="m 462.488,629.968 h 28.344 v -8.504 h -28.344 z"
         style="fill:none;stroke:#000000;stroke-width:0.283465;stroke-linecap:butt;stroke-linejoin:miter;stroke-miterlimit:4;stroke-dasharray:none;stroke-opacity:1"
         id="path197"
         inkscape:connector-curvature="0" /><g
         id="g199"
         transform="matrix(1,0,0,-1,0,841.88975)"><path
           d="m 230.395,560.43 v 5.691 h -34.676"
           style="fill:none;stroke:#000000;stroke-width:0.80000001;stroke-linecap:butt;stroke-linejoin:miter;stroke-miterlimit:4;stroke-dasharray:none;stroke-opacity:1"
           id="path201"
           inkscape:connector-curvature="0" /></g><path
         d="m 230.395,281.46 v -5.691 h 34.679"
         style="fill:none;stroke:#000000;stroke-width:0.80000001;stroke-linecap:butt;stroke-linejoin:miter;stroke-miterlimit:4;stroke-dasharray:none;stroke-opacity:1"
         id="path203"
         inkscape:connector-curvature="0" /></g></g></svg>